<svg xmlns="http://www.w3.org/2000/svg" viewBox="0 0 800 600" width="800" height="600">
  <!-- Background -->
  <rect width="800" height="600" fill="#2d5a2d"/>

  <!-- Field lines -->
  <line x1="0" y1="300" x2="800" y2="300" stroke="#ffffff" stroke-width="2" opacity="0.3"/>
  <line x1="400" y1="0" x2="400" y2="600" stroke="#ffffff" stroke-width="2" opacity="0.3"/>

  <!-- Title -->
  <text x="400" y="40" text-anchor="middle" fill="#ffffff" font-size="28" font-weight="bold" font-family="Arial">
    Dime Defense
  </text>
  <text x="400" y="70" text-anchor="middle" fill="#ffffff" font-size="18" font-family="Arial" opacity="0.8">
    一角硬币防守 - 6后卫终极传球防守
  </text>

  <!-- Line of Scrimmage -->
  <line x1="100" y1="400" x2="700" y2="400" stroke="#ffeb3b" stroke-width="3" stroke-dasharray="10,5"/>
  <text x="50" y="405" fill="#ffeb3b" font-size="14" font-weight="bold">LOS</text>

  <!-- D-Line (4) -->
  <circle cx="280" cy="370" r="18" fill="#ff4444" stroke="#ffffff" stroke-width="2"/>
  <text x="280" y="376" text-anchor="middle" fill="#ffffff" font-size="12" font-weight="bold">DE</text>

  <circle cx="360" cy="370" r="18" fill="#ff4444" stroke="#ffffff" stroke-width="2"/>
  <text x="360" y="376" text-anchor="middle" fill="#ffffff" font-size="12" font-weight="bold">DT</text>

  <circle cx="440" cy="370" r="18" fill="#ff4444" stroke="#ffffff" stroke-width="2"/>
  <text x="440" y="376" text-anchor="middle" fill="#ffffff" font-size="12" font-weight="bold">DT</text>

  <circle cx="520" cy="370" r="18" fill="#ff4444" stroke="#ffffff" stroke-width="2"/>
  <text x="520" y="376" text-anchor="middle" fill="#ffffff" font-size="12" font-weight="bold">DE</text>

  <!-- MLB (1) -->
  <circle cx="400" cy="320" r="18" fill="#ff4444" stroke="#ffffff" stroke-width="2"/>
  <text x="400" y="326" text-anchor="middle" fill="#ffffff" font-size="11" font-weight="bold">MLB</text>

  <!-- DBs (6) - Dime package -->
  <circle cx="160" cy="340" r="16" fill="#ff4444" stroke="#ffeb3b" stroke-width="2"/>
  <text x="160" y="346" text-anchor="middle" fill="#ffffff" font-size="10" font-weight="bold">CB</text>

  <circle cx="260" cy="280" r="16" fill="#ff4444" stroke="#ffeb3b" stroke-width="2"/>
  <text x="260" y="286" text-anchor="middle" fill="#ffffff" font-size="10" font-weight="bold">NI</text>

  <circle cx="320" cy="220" r="16" fill="#ff4444" stroke="#ffeb3b" stroke-width="2"/>
  <text x="320" y="226" text-anchor="middle" fill="#ffffff" font-size="10" font-weight="bold">SS</text>

  <circle cx="480" cy="220" r="16" fill="#ff4444" stroke="#ffeb3b" stroke-width="2"/>
  <text x="480" y="226" text-anchor="middle" fill="#ffffff" font-size="10" font-weight="bold">FS</text>

  <circle cx="540" cy="280" r="16" fill="#ff4444" stroke="#ffeb3b" stroke-width="2"/>
  <text x="540" y="286" text-anchor="middle" fill="#ffffff" font-size="10" font-weight="bold">DI</text>
  <text x="540" y="265" fill="#ffeb3b" font-size="9">Dime</text>

  <circle cx="640" cy="340" r="16" fill="#ff4444" stroke="#ffeb3b" stroke-width="2"/>
  <text x="640" y="346" text-anchor="middle" fill="#ffffff" font-size="10" font-weight="bold">CB</text>

  <!-- Formation label -->
  <g transform="translate(580, 480)">
    <rect x="0" y="0" width="200" height="80" fill="#000000" opacity="0.8" rx="8" stroke="#ffeb3b" stroke-width="2"/>
    <text x="100" y="30" text-anchor="middle" fill="#ffeb3b" font-size="28" font-weight="bold">4-1-6</text>
    <text x="100" y="55" text-anchor="middle" fill="#ffffff" font-size="14">Dime Defense</text>
  </g>

  <!-- Key Features -->
  <g transform="translate(50, 110)">
    <rect x="-10" y="-10" width="260" height="120" fill="#000000" opacity="0.85" rx="8"/>
    <text x="0" y="10" fill="#ffffff" font-size="13" font-weight="bold">Dime 要点:</text>
    <text x="0" y="30" fill="#ffffff" font-size="10">✓ 6后卫覆盖所有接球手</text>
    <text x="0" y="46" fill="#ffffff" font-size="10">✓ 3rd & long专用</text>
    <text x="0" y="62" fill="#ffffff" font-size="10">✓ 两分钟防守</text>
    <text x="0" y="78" fill="#ffffff" font-size="10">⚠ 极弱防跑</text>
  </g>

  <!-- Legend -->
  <g transform="translate(50, 540)">
    <circle cx="0" cy="0" r="14" fill="#4a90e2" stroke="#ffffff" stroke-width="2"/>
    <text x="20" y="5" fill="#ffffff" font-size="12">= 进攻</text>

    <circle cx="100" cy="0" r="14" fill="#ff4444" stroke="#ffffff" stroke-width="2"/>
    <text x="120" y="5" fill="#ffffff" font-size="12">= 防守</text>
  </g>
</svg>