<svg xmlns="http://www.w3.org/2000/svg" viewBox="0 0 800 600" width="800" height="600">
  <!-- Background -->
  <rect width="800" height="600" fill="#2d5a2d"/>

  <!-- Field lines -->
  <line x1="0" y1="300" x2="800" y2="300" stroke="#ffffff" stroke-width="2" opacity="0.3"/>
  <line x1="400" y1="0" x2="400" y2="600" stroke="#ffffff" stroke-width="2" opacity="0.3"/>

  <!-- Yard markers -->
  <line x1="0" y1="450" x2="800" y2="450" stroke="#ffffff" stroke-width="1" opacity="0.2"/>
  <line x1="0" y1="350" x2="800" y2="350" stroke="#ffffff" stroke-width="1" opacity="0.2"/>
  <line x1="0" y1="250" x2="800" y2="250" stroke="#ffffff" stroke-width="1" opacity="0.2"/>
  <line x1="0" y1="150" x2="800" y2="150" stroke="#ffffff" stroke-width="1" opacity="0.2"/>

  <!-- Title -->
  <text x="400" y="40" text-anchor="middle" fill="#ffffff" font-size="28" font-weight="bold" font-family="Arial">
    Mesh Concept
  </text>
  <text x="400" y="70" text-anchor="middle" fill="#ffffff" font-size="18" font-family="Arial" opacity="0.8">
    网格概念 - 交叉路线
  </text>

  <!-- Line of Scrimmage -->
  <line x1="100" y1="400" x2="700" y2="400" stroke="#ffeb3b" stroke-width="3" stroke-dasharray="10,5"/>
  <text x="50" y="405" fill="#ffeb3b" font-size="14" font-weight="bold">LOS</text>

  <!-- Arrow markers -->
  <defs>
    <marker id="arrow1" markerWidth="10" markerHeight="7" refX="9" refY="3.5" orient="auto">
      <polygon points="0 0, 10 3.5, 0 7" fill="#00ffff"/>
    </marker>
    <marker id="arrow2" markerWidth="10" markerHeight="7" refX="9" refY="3.5" orient="auto">
      <polygon points="0 0, 10 3.5, 0 7" fill="#ff6b35"/>
    </marker>
    <marker id="arrow3" markerWidth="10" markerHeight="7" refX="9" refY="3.5" orient="auto">
      <polygon points="0 0, 10 3.5, 0 7" fill="#4a90e2"/>
    </marker>
    <marker id="arrow4" markerWidth="10" markerHeight="7" refX="9" refY="3.5" orient="auto">
      <polygon points="0 0, 10 3.5, 0 7" fill="#9b59b6"/>
    </marker>
  </defs>
  <circle cx="200" cy="400" r="12" fill="#4a90e2" stroke="#ffffff" stroke-width="2"/>
  <text x="200" y="404" text-anchor="middle" fill="#ffffff" font-size="10" font-weight="bold">X</text>
  <circle cx="600" cy="400" r="12" fill="#4a90e2" stroke="#ffffff" stroke-width="2"/>
  <text x="600" y="404" text-anchor="middle" fill="#ffffff" font-size="10" font-weight="bold">Z</text>
  <path d="M 200,385 L 200,340 L 500,280" stroke="#00ffff" stroke-width="3" fill="none" marker-end="url(#arrow1)"/>
  <path d="M 600,385 L 600,340 L 300,280" stroke="#ff6b35" stroke-width="3" fill="none" marker-end="url(#arrow2)"/>
  <circle cx="400" cy="310" r="20" fill="#ffeb3b" opacity="0.2"/>
  <text x="400" y="315" text-anchor="middle" fill="#ffeb3b" font-size="11" font-weight="bold">交叉点</text>
  <text x="400" y="480" text-anchor="middle" fill="#ffffff" font-size="12">两个接球手交叉路线</text>
  <text x="400" y="500" text-anchor="middle" fill="#ffeb3b" font-size="11">制造覆盖冲突</text>
  <!-- Legend -->
  <g transform="translate(50, 540)">
    <circle cx="0" cy="0" r="10" fill="#4a90e2" stroke="#ffffff" stroke-width="2"/>
    <text x="16" y="5" fill="#ffffff" font-size="10">= 接球手</text>

    <line x1="80" y1="0" x2="120" y2="0" stroke="#00ffff" stroke-width="2" marker-end="url(#arrow1)"/>
    <text x="130" y="5" fill="#ffffff" font-size="10">= 路线</text>
  </g>
</svg>